<svg xmlns="http://www.w3.org/2000/svg" viewBox="0 0 300 313"   width="16"
  height="16" role="img" aria-label="Trainium Logo">
  <g fill="#000000">
      <path d="M98.3 2c-4.3 1-6.3 2.7-8 6.8-2.5 6.1 2.3 14.2 8.3 14.2h2.4v34.2c0 19.2-.4 35.8-1 37.8-1.2 4.5-7.1 14.7-28.7 50-9.7 15.7-23.2 37.7-30.1 49-6.9 11.3-16.8 27.5-22.2 36C1.8 257.6.5 261 1.2 274.1c.7 12.4 8.1 24.4 19.5 31.7 10.3 6.6 4 6.3 131.4 6l115.4-.3 4.8-2.2c11.5-5.3 21.1-15.4 24.9-26.1 3-8.7 2.3-20.6-1.8-29.2-1.7-3.6-14.6-24.9-28.6-47.5-14-22.6-30.6-49.3-36.8-59.5-6.2-10.2-14.1-23.1-17.6-28.7-12.4-20-12.7-20.6-13.6-36.4-.5-7.7-.7-24-.6-36.2l.3-22.1 3.5-.7c5-1 8-5 8-10.4 0-5.6-3-9.3-8.5-10.5C196.7.9 102.9.9 98.3 2zm82.9 56.7c.3 37.6.4 39 2.6 44.4 2.3 5.6 8 15.5 25.4 43.9 16 26 21.5 34.9 31.9 51 21.9 34.2 38 61.8 39.1 67.3 2.1 10-3.1 20.8-12 25l-4.7 2.2H36.4l-4.9-2.5c-9.2-4.8-14.3-15.9-11.6-25.9 1-3.6 14.9-28.2 23.6-41.8 1.1-1.7 4.6-7.3 7.9-12.5 3.2-5.1 6.9-10.9 8.1-12.8 1.3-1.9 7.1-11.4 13.1-21 5.9-9.6 14.8-24 19.7-32 17.4-28 22.8-37.6 24.7-43.9 1.8-5.8 2-9.3 2-43.2V20h61.9l.3 38.7z"/>
        <path d="M150.9 53.9c-3.6 3.6-3.7 7-.3 11 5.2 6.2 14.9 2.5 14.7-5.5-.2-7.8-8.8-11.1-14.4-5.5zm-13.4 37.3c-3.2 1.8-4.4 4-4.5 7.6 0 4.6 1.6 7.1 5.6 8.8 8.8 3.7 16.4-6.8 10.2-14.1-2.6-3-8.3-4.1-11.3-2.3zm7.2 44.6c-2.2 2.4-2.1 6.5.1 8.5 1.3 1.2 3.7 1.7 8.5 1.7 8.2 0 13.1 2.1 15.2 6.6 2 4.3 2 11.4 0 11.4-1 0-1.5 1.1-1.5 3.5 0 1.9.5 3.5 1 3.5.6 0 1 1.6 1 3.5v3.5h-31.9l-.3-3.8-.3-3.7h-24l-.3 3.7-.3 3.8H80.5l-4 6.2c-2.2 3.4-4.1 6.5-4.3 7-.2.4 4.8.8 11.2.8 11.3 0 11.6.1 11.7 2.2 0 1.3.2 3.1.4 4 .3 1.7-.9 1.8-13.9 1.8H67.5l-5.8 9.9c-3.1 5.4-8.1 13.6-11.1 18.2s-5.3 8.5-5.1 8.7c.2.2 28.3.5 62.4.6 59.1.1 62 .2 64 2 1.2 1.1 2.1 2.7 2.1 3.6 0 1.7-4 1.8-66.3 1.4-36.4-.1-66.7 0-67.2.4-1.6 1.1-6.5 8-6.5 9.1 0 .6 3.2 1.1 7.2 1.3l7.3.3.6 3.5c.3 1.9 1.1 4.5 1.7 5.7 2.2 4 1.6 4.3-9.3 4.3H31v6h113.5c99 0 113.6-.2 114.1-1.5.8-1.9-1.3-4.4-12.6-15-5.2-4.9-9.9-9.5-10.3-10.3-.5-.7-1.7-7.7-2.8-15.4-1.1-7.8-2.5-15-3.1-16.1-2.1-4-23.7-33.3-26.3-35.7-2.3-2.1-3.8-2.5-10.6-2.9l-7.9-.3v-3.4c0-1.9.5-3.4 1-3.4.6 0 1-1.3 1-2.9 0-2.3-.5-3-2.2-3.3-2.1-.3-2.3-.9-2.8-9-.5-7.6-.9-9.2-3.5-12.9-4.8-6.9-9.9-8.9-22-8.9-8.6 0-10.4.3-11.8 1.8zm-.4 58.9c1 5.4 1 5.4-19.7 5.1l-19.1-.3-.3-2.3c-.8-5.2-.6-5.2 19.7-5.2h18.9l.5 2.7zm29.2 6.3c3.2 5 5.8 9.9 5.9 10.8.1 1.5-1.3 1.7-11.6 2-6.5.1-11.9-.1-11.9-.5-.4-2.3-.6-19.9-.2-20.6.2-.4 3.1-.7 6.3-.7h5.8l5.7 9zm27.7-6.3c5.4 6 13.8 17.5 13.2 18.4-.3.5-4.2.9-8.8.9-6.6 0-8.6-.3-9.8-1.8-1.7-1.9-11.8-18.7-11.8-19.6 0-.3 3.3-.6 7.3-.6 6.7 0 7.5.2 9.9 2.7zm18.8 34.1c6.1 4.9-1.1 13.5-7.4 8.9-2.7-2-1.8-7.8 1.4-9.4 3.2-1.6 3.4-1.6 6 .5zM78.1 260c.4 2.5 1 5.5 1.4 6.7.7 2 .4 2.1-7.2 2.5-4.3.2-8.2 0-8.7-.4-.5-.3.1-1.9 1.3-3.4s2.4-4.5 2.7-6.6l.7-3.9 4.6.3 4.6.3.6 4.5zm31.1-4.4c4 .6 4.6 1 5.7 4 .7 1.9 2.3 4.2 3.7 5 1.3.9 2.4 2.3 2.4 3 0 1.1-2.8 1.4-14.1 1.4H92.8l2.1-3.4c1.2-1.8 2.1-4.7 2.1-6.3 0-1.6.3-3.3.7-3.6.8-.9 5.6-.9 11.5-.1zm50.4 2.1c.3 1.6 1.9 4.5 3.5 6.5s2.6 3.9 2.1 4.2c-1.2.7-20.1 1.1-20.8.3-.4-.3.5-2 2-3.7 1.4-1.8 2.9-4.4 3.3-5.8.8-3.4 1.9-4.2 6-4.2 2.7 0 3.4.4 3.9 2.7zm63.6 3.3c3.5 7.1 3.5 8.2.1 7.8-2.3-.2-3.4-1.4-5.8-6.1-2.6-4.9-2.8-5.9-1.5-6.7 2.7-1.8 4.5-.6 7.2 5zm14.8-.1c3.3 3.2 6 6.4 6 7 0 .8-1.5 1.1-4.2.9-4-.3-4.4-.6-7.1-5.7-2.5-4.6-3-8.1-1.2-8.1.3 0 3.2 2.6 6.5 5.9zm-101.6-3.3c1.8 4.8-.1 8.4-4.6 8.4-4.3 0-6.4-5.3-3.2-8.4 2-2.1 7-2.1 7.8 0zm44.4 2.8c.4 4.2-.8 5.6-4.5 5.6-3.9 0-5.9-6.9-2.5-8.9.9-.6 2.8-1 4.2-.8 2.1.2 2.5.8 2.8 4.1zm27.4 1.3c1.6 2.9 2.7 5.7 2.3 6.3-.7 1.2-22.5 1.4-22.5.2 0-.4 1.1-1.7 2.5-3 1.3-1.3 2.9-3.9 3.5-5.8 1.2-3.4 1.3-3.5 6.2-3.2 5 .3 5.1.4 8 5.5z"/>
    </g>
  </svg>